<mxfile host="app.diagrams.net" modified="2024-07-04T04:44:07.868Z" agent="Mozilla/5.0 (Windows NT 10.0; Win64; x64) AppleWebKit/537.36 (KHTML, like Gecko) Chrome/126.0.0.0 Safari/537.36" etag="IStCzI6cKrjXlRb1Tw8r" version="24.6.4" type="device">
  <diagram id="C5RBs43oDa-KdzZeNtuy" name="Page-1">
    <mxGraphModel dx="880" dy="460" grid="1" gridSize="10" guides="1" tooltips="1" connect="1" arrows="1" fold="1" page="1" pageScale="1" pageWidth="827" pageHeight="1169" math="0" shadow="0">
      <root>
        <mxCell id="WIyWlLk6GJQsqaUBKTNV-0" />
        <mxCell id="WIyWlLk6GJQsqaUBKTNV-1" parent="WIyWlLk6GJQsqaUBKTNV-0" />
        <mxCell id="X_Vtb1qDiBPKlhScbioj-2" value="" style="edgeStyle=orthogonalEdgeStyle;rounded=1;orthogonalLoop=1;jettySize=auto;html=1;labelBackgroundColor=none;strokeColor=#E07A5F;fontColor=default;strokeWidth=5;" edge="1" parent="WIyWlLk6GJQsqaUBKTNV-1" source="X_Vtb1qDiBPKlhScbioj-0" target="X_Vtb1qDiBPKlhScbioj-1">
          <mxGeometry relative="1" as="geometry" />
        </mxCell>
        <mxCell id="X_Vtb1qDiBPKlhScbioj-0" value="start" style="strokeWidth=5;html=1;shape=mxgraph.flowchart.terminator;whiteSpace=wrap;fontSize=20;fontStyle=3;horizontal=1;verticalAlign=middle;align=center;labelBackgroundColor=none;fillColor=#F2CC8F;strokeColor=#945847;fontColor=#393C56;rounded=1;perimeterSpacing=0;gradientColor=none;fillStyle=auto;gradientDirection=radial;" vertex="1" parent="WIyWlLk6GJQsqaUBKTNV-1">
          <mxGeometry x="230" y="40" width="140" height="60" as="geometry" />
        </mxCell>
        <mxCell id="X_Vtb1qDiBPKlhScbioj-4" value="" style="edgeStyle=orthogonalEdgeStyle;rounded=1;orthogonalLoop=1;jettySize=auto;html=1;labelBackgroundColor=none;strokeColor=#E07A5F;fontColor=default;strokeWidth=5;" edge="1" parent="WIyWlLk6GJQsqaUBKTNV-1" source="X_Vtb1qDiBPKlhScbioj-1" target="X_Vtb1qDiBPKlhScbioj-3">
          <mxGeometry relative="1" as="geometry" />
        </mxCell>
        <mxCell id="X_Vtb1qDiBPKlhScbioj-1" value="input 0.5(a+b)h" style="shape=parallelogram;html=1;strokeWidth=5;perimeter=parallelogramPerimeter;whiteSpace=wrap;rounded=1;arcSize=12;size=0.23;fontSize=20;fontStyle=3;labelBackgroundColor=none;fillColor=#F2CC8F;strokeColor=#945847;fontColor=#393C56;perimeterSpacing=0;gradientColor=none;fillStyle=auto;gradientDirection=radial;" vertex="1" parent="WIyWlLk6GJQsqaUBKTNV-1">
          <mxGeometry x="196.5" y="140" width="205" height="60" as="geometry" />
        </mxCell>
        <mxCell id="X_Vtb1qDiBPKlhScbioj-6" value="" style="edgeStyle=orthogonalEdgeStyle;rounded=1;orthogonalLoop=1;jettySize=auto;html=1;labelBackgroundColor=none;strokeColor=#E07A5F;fontColor=default;strokeWidth=5;" edge="1" parent="WIyWlLk6GJQsqaUBKTNV-1" source="X_Vtb1qDiBPKlhScbioj-3" target="X_Vtb1qDiBPKlhScbioj-5">
          <mxGeometry relative="1" as="geometry" />
        </mxCell>
        <mxCell id="X_Vtb1qDiBPKlhScbioj-3" value="&lt;font style=&quot;font-size: 20px;&quot;&gt;Trapezoid Area&amp;nbsp;&lt;/font&gt;&lt;div&gt;&lt;font style=&quot;font-size: 20px;&quot;&gt;=&lt;/font&gt;&lt;span style=&quot;background-color: initial;&quot;&gt;&amp;nbsp;&lt;/span&gt;&lt;div style=&quot;display: inline-block; position: relative; transition: color 0.05s ease-in-out 0s; margin: -4px -4px -4px -14px; padding: 4px 0px; text-wrap: nowrap; color: rgb(32, 33, 36); font-family: STIXGeneral, Georgia; text-align: start; background-color: rgb(255, 255, 255);&quot; data-var=&quot;A&quot; class=&quot;lr-fy-el lr-fy-eq-elem&quot;&gt;A&lt;/div&gt;&lt;div style=&quot;display: inline-block; position: relative; transition: color 0.05s ease-in-out 0s; padding: 4px 0px; text-wrap: nowrap; color: rgb(32, 33, 36); font-family: STIXGeneral, Georgia; font-style: normal; text-align: start; background-color: rgb(255, 255, 255);&quot; class=&quot;lr-fy-eq-elem lr-fy-eq-add&quot;&gt;&lt;div style=&quot;display: inline-block; position: relative; transition: color 0.05s ease-in-out 0s; margin-left: 0.2em; margin-right: 0.2em;&quot; class=&quot;lr-fy-eq-elem lr-fy-eq-add&quot;&gt;=&lt;/div&gt;&lt;div style=&quot;display: inline-block; position: relative; transition: color 0.05s ease-in-out 0s; margin-top: -1px; margin-bottom: 0px;&quot; class=&quot;lr-fy-eq-elem&quot; data-ver=&quot;0&quot; data-var=&quot;A&quot; data-lr-op=&quot;ipar&quot;&gt;&lt;div style=&quot;display: inline-block; position: relative; transition: color 0.05s ease-in-out 0s;&quot; class=&quot;lr-fy-eq-elem&quot; data-lr-op=&quot;imul&quot;&gt;&lt;div style=&quot;display: inline-block; position: relative; transition: color 0.05s ease-in-out 0s; text-align: center; vertical-align: middle;&quot; class=&quot;lr-fy-eq-elem&quot; data-lr-op=&quot;div&quot;&gt;&lt;div style=&quot;display: inline-block; position: relative; transition: color 0.05s ease-in-out 0s; margin-top: 1px;&quot; class=&quot;lr-fy-eq-elem&quot; data-lr-op=&quot;ipar&quot;&gt;&lt;div style=&quot;display: inline-block; position: relative; transition: color 0.05s ease-in-out 0s;&quot; class=&quot;lr-fy-eq-elem&quot; data-lr-op=&quot;plus&quot;&gt;&lt;div style=&quot;display: inline-block; position: relative; transition: color 0.05s ease-in-out 0s; margin: -4px; padding: 4px; font-style: italic; cursor: pointer;&quot; role=&quot;link&quot; data-var=&quot;a&quot; class=&quot;lr-fy-el lr-fy-eq-elem&quot;&gt;a&lt;/div&gt;&lt;div style=&quot;display: inline-block; position: relative; transition: color 0.05s ease-in-out 0s; margin-left: 0.1em; margin-right: 0.1em;&quot; class=&quot;lr-fy-eq-elem lr-fy-eq-add&quot;&gt;+&lt;/div&gt;&lt;div style=&quot;display: inline-block; position: relative; transition: color 0.05s ease-in-out 0s; margin: -4px; padding: 4px; font-style: italic; cursor: pointer;&quot; role=&quot;link&quot; data-var=&quot;b&quot; class=&quot;lr-fy-el lr-fy-eq-elem&quot;&gt;b&lt;/div&gt;&lt;/div&gt;&lt;/div&gt;&lt;div style=&quot;width: 39.4219px; height: 1px; background-color: black; margin-top: 2px; margin-bottom: 2px;&quot; class=&quot;lr-fy-eq-add&quot;&gt;&lt;/div&gt;&lt;div style=&quot;display: inline-block; position: relative; transition: color 0.05s ease-in-out 0s; font-family: STIXGeneral, Times, &amp;quot;Times New Roman&amp;quot;, serif;&quot; class=&quot;lr-fy-ecv lr-fy-eq-elem&quot;&gt;2&lt;/div&gt;&lt;/div&gt;&lt;div style=&quot;display: inline-block; position: relative; transition: color 0.05s ease-in-out 0s; margin-left: 0.2em;&quot; class=&quot;lr-fy-eq-elem lr-fy-eq-add&quot;&gt;&lt;/div&gt;&lt;div style=&quot;display: inline-block; position: relative; transition: color 0.05s ease-in-out 0s; margin: -4px; padding: 4px; font-style: italic; cursor: pointer;&quot; role=&quot;link&quot; data-var=&quot;h&quot; class=&quot;lr-fy-el lr-fy-eq-elem&quot;&gt;h&lt;/div&gt;&lt;/div&gt;&lt;/div&gt;&lt;/div&gt;&lt;/div&gt;" style="rounded=1;whiteSpace=wrap;html=1;absoluteArcSize=1;arcSize=14;strokeWidth=5;fontSize=20;fontStyle=2;labelBackgroundColor=none;fillColor=#F2CC8F;strokeColor=#945847;fontColor=#393C56;glass=0;shadow=0;perimeterSpacing=0;gradientColor=none;fillStyle=auto;gradientDirection=radial;" vertex="1" parent="WIyWlLk6GJQsqaUBKTNV-1">
          <mxGeometry x="187.62" y="240" width="222.75" height="80" as="geometry" />
        </mxCell>
        <mxCell id="X_Vtb1qDiBPKlhScbioj-9" value="" style="edgeStyle=orthogonalEdgeStyle;rounded=1;orthogonalLoop=1;jettySize=auto;html=1;labelBackgroundColor=none;strokeColor=#E07A5F;fontColor=default;strokeWidth=5;" edge="1" parent="WIyWlLk6GJQsqaUBKTNV-1" source="X_Vtb1qDiBPKlhScbioj-5" target="X_Vtb1qDiBPKlhScbioj-8">
          <mxGeometry relative="1" as="geometry" />
        </mxCell>
        <mxCell id="X_Vtb1qDiBPKlhScbioj-5" value="&lt;font style=&quot;font-size: 20px;&quot;&gt;&lt;i&gt;Output&lt;/i&gt;&lt;/font&gt;&lt;div style=&quot;font-size: 20px;&quot;&gt;&lt;font style=&quot;font-size: 20px;&quot;&gt;&lt;i&gt;Rectangle Area&lt;/i&gt;&lt;/font&gt;&lt;/div&gt;" style="shape=parallelogram;html=1;strokeWidth=5;perimeter=parallelogramPerimeter;whiteSpace=wrap;rounded=1;arcSize=12;size=0.23;labelBackgroundColor=none;fillColor=#F2CC8F;strokeColor=#945847;fontColor=#393C56;perimeterSpacing=0;gradientColor=none;fillStyle=auto;gradientDirection=radial;" vertex="1" parent="WIyWlLk6GJQsqaUBKTNV-1">
          <mxGeometry x="181.56" y="350" width="236.88" height="60" as="geometry" />
        </mxCell>
        <mxCell id="X_Vtb1qDiBPKlhScbioj-8" value="End" style="strokeWidth=5;html=1;shape=mxgraph.flowchart.terminator;whiteSpace=wrap;fontSize=20;fontStyle=3;horizontal=1;verticalAlign=middle;align=center;labelBackgroundColor=none;fillColor=#F2CC8F;strokeColor=#945847;fontColor=#393C56;rounded=1;perimeterSpacing=0;gradientColor=none;fillStyle=auto;gradientDirection=radial;" vertex="1" parent="WIyWlLk6GJQsqaUBKTNV-1">
          <mxGeometry x="230" y="450" width="140" height="60" as="geometry" />
        </mxCell>
      </root>
    </mxGraphModel>
  </diagram>
</mxfile>
